HIERARCHY
ROOT Hips
{
	OFFSET 0.000000 0.000000 0.000000
	CHANNELS 6 Xposition Yposition Zposition Xrotation Yrotation Zrotation
	JOINT LeftUpLeg_virtual
	{
		OFFSET 0.000000 0.000000 0.000000
		CHANNELS 3 Xrotation Yrotation Zrotation
		JOINT LeftUpLeg
		{
			OFFSET 15.427100 -6.655098 0.678600
			CHANNELS 3 Xrotation Yrotation Zrotation
			JOINT LeftLeg
			{
				OFFSET 4.081073 -39.591068 13.024000
				CHANNELS 3 Xrotation Yrotation Zrotation
				JOINT LeftFoot
				{
					OFFSET -4.081074 -37.707932 -15.979700
					CHANNELS 3 Xrotation Yrotation Zrotation
					JOINT LeftToeBase
					{
						OFFSET 5.346399 -15.068900 20.645000
						CHANNELS 3 Xrotation Yrotation Zrotation
						JOINT LeftToe_End
						{
							OFFSET 2.754700 0.931300 11.300900
							CHANNELS 3 Xrotation Yrotation Zrotation
							End Site
							{
								OFFSET 0 0 0
							}
						}
					}
				}
			}
		}
	}
	JOINT RightUpLeg_virtual
	{
		OFFSET 0.000000 0.000000 0.000000
		CHANNELS 3 Xrotation Yrotation Zrotation
		JOINT RightUpLeg
		{
			OFFSET -15.569500 -6.655098 0.678600
			CHANNELS 3 Xrotation Yrotation Zrotation
			JOINT RightLeg
			{
				OFFSET -4.081825 -39.591045 13.023800
				CHANNELS 3 Xrotation Yrotation Zrotation
				JOINT RightFoot
				{
					OFFSET 4.081824 -37.707954 -15.979600
					CHANNELS 3 Xrotation Yrotation Zrotation
					JOINT RightToeBase
					{
						OFFSET -5.346400 -15.068900 20.645000
						CHANNELS 3 Xrotation Yrotation Zrotation
						JOINT RightToe_End
						{
							OFFSET -2.754700 0.931300 11.300900
							CHANNELS 3 Xrotation Yrotation Zrotation
							End Site
							{
								OFFSET 0 0 0
							}
						}
					}
				}
			}
		}
	}
	JOINT Spine_virtual
	{
		OFFSET 0.000000 0.000000 0.000000
		CHANNELS 3 Xrotation Yrotation Zrotation
		JOINT Spine
		{
			OFFSET -0.279200 12.230698 -2.892100
			CHANNELS 3 Xrotation Yrotation Zrotation
			JOINT Spine1
			{
				OFFSET -0.232667 10.192268 -1.242267
				CHANNELS 3 Xrotation Yrotation Zrotation
				JOINT Spine1_split
				{
					OFFSET -0.232667 10.192268 -1.242267
					CHANNELS 3 Xrotation Yrotation Zrotation
					JOINT Spine2
					{
						OFFSET -0.232667 10.192268 -1.242267
						CHANNELS 3 Xrotation Yrotation Zrotation
						JOINT Neck_virtual
						{
							OFFSET 0.000000 0.000000 0.000000
							CHANNELS 3 Xrotation Yrotation Zrotation
							JOINT Neck
							{
								OFFSET -0.418800 17.814194 8.416900
								CHANNELS 3 Xrotation Yrotation Zrotation
								JOINT Head
								{
									OFFSET 0.000000 7.031097 3.806800
									CHANNELS 3 Xrotation Yrotation Zrotation
									JOINT HeadTop_End
									{
										OFFSET 0.000000 24.646606 12.978600
										CHANNELS 3 Xrotation Yrotation Zrotation
										End Site
										{
											OFFSET 0 0 0
										}
									}
								}
							}
						}
						JOINT LeftShoulder_virtual
						{
							OFFSET 0.000000 0.000000 0.000000
							CHANNELS 3 Xrotation Yrotation Zrotation
							JOINT LeftShoulder
							{
								OFFSET 8.476499 7.247704 -3.868750
								CHANNELS 3 Xrotation Yrotation Zrotation
								JOINT LeftShoulder_split
								{
									OFFSET 8.476499 7.247704 -3.868750
									CHANNELS 3 Xrotation Yrotation Zrotation
									JOINT LeftArm
									{
										OFFSET 9.308998 -2.777710 0.208600
										CHANNELS 3 Xrotation Yrotation Zrotation
										JOINT LeftForeArm
										{
											OFFSET 29.972298 0.000000 0.000000
											CHANNELS 3 Xrotation Yrotation Zrotation
											JOINT LeftHand
											{
												OFFSET 26.026505 0.000000 0.000000
												CHANNELS 3 Xrotation Yrotation Zrotation
												End Site
												{
													OFFSET 0 0 0
												}
											}
										}
									}
								}
							}
						}
						JOINT RightShoulder_virtual
						{
							OFFSET 0.000000 0.000000 0.000000
							CHANNELS 3 Xrotation Yrotation Zrotation
							JOINT RightShoulder
							{
								OFFSET -7.570500 7.247704 -3.868750
								CHANNELS 3 Xrotation Yrotation Zrotation
								JOINT RightShoulder_split
								{
									OFFSET -7.570500 7.247704 -3.868750
									CHANNELS 3 Xrotation Yrotation Zrotation
									JOINT RightArm
									{
										OFFSET -9.308998 -2.777710 0.208500
										CHANNELS 3 Xrotation Yrotation Zrotation
										JOINT RightForeArm
										{
											OFFSET -29.972300 0.000000 0.000000
											CHANNELS 3 Xrotation Yrotation Zrotation
											JOINT RightHand
											{
												OFFSET -26.026505 0.000000 0.000000
												CHANNELS 3 Xrotation Yrotation Zrotation
												End Site
												{
													OFFSET 0 0 0
												}
											}
										}
									}
								}
							}
						}
					}
				}
			}
		}
	}
}
MOTION
Frames: 6
Frame Time: 0.03333333
-0.611857 90.856506 0.539791 0.000000 0.000000 0.000000 1.220488 -5.534322 0.792263 -11.478945 -6.063154 12.583520 24.084850 3.016078 -1.097186 -5.689534 10.467288 -11.703478 -1.596520 0.513497 -1.533473 0.000000 0.000000 0.000000 2.024937 -6.472069 0.639738 -1.129005 -4.728970 -15.605464 17.543930 4.653687 5.329032 -13.327182 -13.944116 12.812119 2.614500 -0.395397 0.591071 0.000000 0.000000 0.000000 1.932926 -3.139865 -0.506511 2.102862 -0.738301 0.555734 2.365610 -0.052498 0.293426 1.211476 -0.313757 -0.249425 0.000000 0.000000 0.000000 2.269306 -0.046832 0.097244 -1.069344 0.692755 1.133761 1.343891 0.694782 2.382864 0.000000 0.000000 0.000000 1.837691 0.136722 0.095681 0.588428 9.550957 -11.452877 -0.920380 -1.347143 -1.021486 14.076123 -8.737047 -50.398156 1.559550 -34.810175 1.595190 0.000000 0.000000 0.000000 2.116087 -0.005182 0.128159 1.609753 -8.077446 12.821851 1.181520 2.116797 -2.453651 6.079358 20.652325 60.830273 2.549609 24.369135 0.979617 0.000000 0.000000 0.000000 
-0.734292 90.927132 0.404991 0.000000 0.000000 0.000000 1.180657 -5.018691 1.092035 -11.184638 -4.499626 11.842798 23.764986 2.590281 -1.311662 -6.365231 9.419518 -11.452200 -1.879238 0.396430 -1.144425 0.000000 0.000000 0.000000 1.898221 -6.096460 0.839678 -1.280546 -5.067694 -16.021916 16.901180 4.419864 5.483767 -13.602186 -13.552837 11.589545 3.469633 -0.407836 0.872394 0.000000 0.000000 0.000000 2.057234 -3.032380 0.020332 2.200492 -0.913819 0.451869 2.219496 -0.109812 0.245588 1.042980 -0.504017 -0.234556 0.000000 0.000000 0.000000 2.213885 -0.097758 0.072415 -0.765501 0.742201 0.870436 1.712202 0.873481 2.455573 0.000000 0.000000 0.000000 1.807233 0.061399 0.054533 0.615304 9.395784 -11.415823 -0.964855 -1.176348 -0.999517 13.803320 -9.522853 -50.756211 1.606673 -35.286834 1.658167 0.000000 0.000000 0.000000 2.086263 -0.067602 0.132089 1.677182 -8.062537 12.823355 1.012290 2.144227 -2.713502 5.855064 20.878210 60.681053 2.506371 25.347886 0.999916 0.000000 0.000000 0.000000 
-0.940402 91.045151 0.060581 0.000000 0.000000 0.000000 1.031120 -4.498221 1.793847 -10.298896 -2.428541 10.446674 22.686267 1.951555 -1.760159 -7.053580 7.572632 -11.374865 -2.683876 0.246252 -0.546542 0.000000 0.000000 0.000000 1.751122 -5.618803 1.421688 -2.475560 -5.502989 -16.815157 17.768904 4.303460 5.749096 -13.820317 -12.755381 9.670798 2.369346 -0.362363 1.037909 0.000000 0.000000 0.000000 2.077218 -3.077740 0.841368 2.424328 -1.342500 0.109546 1.962407 -0.221733 0.129699 0.974309 -0.413166 -0.185249 0.000000 0.000000 0.000000 1.946723 -0.184420 -0.006253 -0.451862 0.729535 0.599630 2.642010 1.078018 2.573545 0.000000 0.000000 0.000000 1.607684 -0.062196 -0.007226 0.603232 9.015378 -11.317422 -0.864960 -0.857286 -0.914831 13.810742 -10.663938 -51.185537 1.333243 -35.780346 1.470691 0.000000 0.000000 0.000000 1.879979 -0.184867 0.100815 1.712370 -7.833985 12.821470 0.963634 2.065300 -2.894958 5.760086 21.246951 60.470451 2.354462 26.598363 1.017718 0.000000 0.000000 0.000000 
-1.132620 91.044640 -0.290760 0.000000 0.000000 0.000000 0.787358 -4.263115 2.668502 -8.879768 0.042676 8.699712 20.933299 1.614471 -2.392568 -7.951724 5.526432 -10.702842 -2.971381 0.103741 -0.060292 0.000000 0.000000 0.000000 1.519919 -5.211177 2.213284 -4.710720 -5.918922 -17.706659 20.318358 4.350658 6.101624 -13.751876 -11.671118 7.360939 -0.838270 -0.350095 1.116297 0.000000 0.000000 0.000000 2.026925 -3.591959 1.729805 2.789038 -1.946833 -0.417619 1.629583 -0.372559 -0.011045 0.968867 -0.244202 -0.088505 0.000000 0.000000 0.000000 1.556446 -0.287080 -0.109593 -0.180567 0.667050 0.389225 4.034680 1.351889 2.676671 0.000000 0.000000 0.000000 1.291066 -0.208968 -0.066964 0.549803 8.425247 -11.168300 -0.727579 -0.455293 -0.744562 14.081348 -11.972010 -51.635581 0.835474 -36.148605 1.105080 0.000000 0.000000 0.000000 1.548986 -0.330517 0.050958 1.702693 -7.404249 12.896767 0.944244 1.888644 -2.912253 5.803817 21.711445 60.159343 2.157685 27.771911 0.993342 0.000000 0.000000 0.000000 
-1.315490 90.828300 -0.619682 0.000000 0.000000 0.000000 0.597801 -4.528990 3.446186 -7.089359 2.662508 6.892946 18.767070 1.977198 -3.035123 -9.284329 3.841876 -8.912210 -2.003680 0.000479 -0.058807 0.000000 0.000000 0.000000 1.318867 -5.344662 2.999257 -7.627238 -6.198613 -18.216103 23.917031 4.600891 6.477173 -13.449205 -10.276041 5.000082 -5.329846 -0.402364 1.012181 0.000000 0.000000 0.000000 1.797627 -4.714095 2.441097 3.258268 -2.593543 -0.995760 1.275102 -0.529452 -0.120445 1.095287 -0.031572 -0.064495 0.000000 0.000000 0.000000 1.146856 -0.386727 -0.200725 0.012889 0.586841 0.274783 5.770021 1.722607 2.689775 0.000000 0.000000 0.000000 0.938317 -0.344319 -0.103503 0.461382 7.689314 -10.980390 -0.710026 -0.136873 -0.604471 14.593661 -13.348286 -52.033464 0.291289 -36.394557 0.709086 0.000000 0.000000 0.000000 1.164969 -0.474043 0.004413 1.646891 -6.802665 13.115581 0.850719 1.635120 -2.861974 5.944184 22.151154 59.731275 1.975887 28.699352 0.914132 0.000000 0.000000 0.000000 
-1.369131 90.409546 -0.681805 0.000000 0.000000 0.000000 0.483014 -5.453737 3.875190 -5.103389 4.969721 5.388798 16.529121 2.836062 -3.441881 -10.886139 2.581145 -6.423753 -0.559672 -0.033053 -0.259622 0.000000 0.000000 0.000000 1.145297 -6.173627 3.538453 -10.581236 -6.344820 -17.927102 27.640083 5.120581 6.912154 -13.074538 -8.432404 2.746754 -9.456998 -0.471308 0.727455 0.000000 0.000000 0.000000 1.454145 -6.250775 2.807334 3.765379 -3.130374 -1.481870 0.959345 -0.654653 -0.162979 1.245000 0.130657 -0.017987 0.000000 0.000000 0.000000 0.806777 -0.465218 -0.253838 0.154761 0.506238 0.245728 7.766390 2.210900 2.525305 0.000000 0.000000 0.000000 0.628112 -0.445905 -0.105055 0.367333 6.906664 -10.762107 -0.824861 0.017498 -0.456846 15.302532 -14.731472 -52.290706 -0.103293 -36.576127 0.424990 0.000000 0.000000 0.000000 0.802837 -0.594881 -0.021074 1.556547 -6.072660 13.526507 0.689551 1.391445 -2.786171 6.158445 22.379904 59.249712 1.845956 29.448764 0.779405 0.000000 0.000000 0.000000 
